<svg width="10" height="13" viewBox="0 0 10 13" fill="none" xmlns="http://www.w3.org/2000/svg">
<path d="M1.16667 12.25C0.845833 12.25 0.571181 12.1358 0.342708 11.9073C0.114236 11.6788 0 11.4042 0 11.0833V5.25C0 4.92917 0.114236 4.65451 0.342708 4.42604C0.571181 4.19757 0.845833 4.08333 1.16667 4.08333H2.91667V5.25H1.16667V5.25V5.25V11.0833V11.0833V11.0833H8.16667V11.0833V11.0833V5.25V5.25V5.25H6.41667V4.08333H8.16667C8.4875 4.08333 8.76215 4.19757 8.99063 4.42604C9.2191 4.65451 9.33333 4.92917 9.33333 5.25V11.0833C9.33333 11.4042 9.2191 11.6788 8.99063 11.9073C8.76215 12.1358 8.4875 12.25 8.16667 12.25H1.16667V12.25M4.08333 8.75V2.23125L3.15 3.16458L2.33333 2.33333L4.66667 0L7 2.33333L6.18333 3.16458L5.25 2.23125V8.75H4.08333V8.75" fill="#A3AAC4"/>
</svg>
